<?xml version="1.0" standalone="no"?>
<!DOCTYPE svg PUBLIC "-//W3C//DTD SVG 20010904//EN"
 "http://www.w3.org/TR/2001/REC-SVG-20010904/DTD/svg10.dtd">
<svg version="1.0" xmlns="http://www.w3.org/2000/svg"
 width="500.000000pt" height="500.000000pt" viewBox="0 0 500.000000 500.000000"
 preserveAspectRatio="xMidYMid meet">

<g transform="translate(0.000000,500.000000) scale(0.100000,-0.100000)"
fill="#000000" stroke="none">
<path d="M1767 3470 c-345 -58 -618 -346 -656 -693 -6 -54 -11 -288 -11 -532
l0 -435 170 0 170 0 0 468 c0 388 3 478 15 527 85 326 479 449 727 226 53 -48
105 -120 128 -181 11 -27 15 -137 20 -470 6 -479 7 -485 69 -529 33 -24 119
-39 148 -26 10 5 21 9 25 9 3 1 10 5 15 10 5 6 2 6 -7 1 -12 -7 -13 -6 -3 7 7
8 9 19 5 24 -4 4 1 2 10 -5 24 -18 41 -5 27 21 -9 18 -8 19 10 13 12 -3 22 -3
22 2 1 4 3 19 5 33 2 14 6 201 9 415 3 215 8 409 11 432 7 57 64 169 111 217
60 62 145 112 222 131 67 16 88 16 239 1 25 -3 40 -1 37 4 -3 6 1 7 10 4 11
-5 13 -10 5 -19 -9 -11 -6 -12 11 -8 15 4 20 2 15 -5 -4 -6 5 -19 20 -28 24
-17 27 -17 36 -1 5 9 16 17 23 17 8 0 15 5 15 10 0 14 -38 12 -43 -2 -2 -8 -8
-9 -13 -4 -5 5 -4 11 4 13 6 3 12 13 12 24 0 10 5 19 11 19 7 0 9 11 6 30 -8
39 1 45 76 48 20 1 37 7 37 13 0 5 -4 8 -8 5 -5 -3 -8 5 -7 17 1 14 8 21 18
21 9 -1 14 2 11 7 -3 5 -1 9 5 9 6 0 7 7 4 17 -5 12 -3 14 7 8 9 -5 11 -4 6 4
-4 6 -12 9 -17 6 -5 -4 -9 -2 -9 4 0 6 -8 8 -17 4 -10 -3 -15 -3 -11 2 4 4 3
14 -3 21 -8 10 -16 11 -31 3 -15 -8 -19 -8 -14 0 4 6 3 11 -2 11 -5 0 -19 9
-32 20 -13 12 -30 18 -37 16 -7 -3 -13 -1 -13 5 0 6 -9 8 -21 4 -13 -5 -19 -3
-15 3 10 16 -122 37 -229 36 -120 -2 -221 -27 -326 -80 -80 -39 -179 -113
-228 -169 -17 -19 -34 -35 -38 -35 -5 0 -40 30 -78 68 -177 170 -428 250 -658
212z m1718 -100 c3 -5 1 -10 -4 -10 -6 0 -11 5 -11 10 0 6 2 10 4 10 3 0 8 -4
11 -10z m20 -30 c13 -6 15 -9 5 -9 -8 0 -22 4 -30 9 -18 12 -2 12 25 0z"/>
<path d="M3568 3303 c7 -3 16 -2 19 1 4 3 -2 6 -13 5 -11 0 -14 -3 -6 -6z"/>
<path d="M3550 3280 c0 -5 12 -10 28 -11 15 0 21 -3 14 -6 -6 -2 -10 -9 -7
-14 4 -5 12 -3 20 4 9 8 10 16 3 25 -12 14 -58 16 -58 2z"/>
<path d="M3626 3252 c-2 -4 4 -8 14 -8 10 0 16 4 14 8 -3 4 -9 8 -14 8 -5 0
-11 -4 -14 -8z"/>
<path d="M3410 3190 c0 -5 5 -10 11 -10 5 0 7 5 4 10 -3 6 -8 10 -11 10 -2 0
-4 -4 -4 -10z"/>
<path d="M3414 3054 c-18 -14 -18 -15 4 -4 12 6 22 13 22 15 0 8 -5 6 -26 -11z"/>
<path d="M1815 2846 c-37 -16 -70 -52 -84 -89 -7 -19 -11 -187 -11 -488 l0
-459 165 0 165 0 0 458 0 459 -23 43 c-40 75 -136 110 -212 76z"/>
<path d="M3095 2853 c-11 -2 -30 -6 -42 -8 -27 -6 -73 -50 -73 -70 0 -7 -6
-15 -12 -17 -10 -4 -13 -51 -14 -189 -1 -101 0 -165 3 -141 2 23 8 42 13 42 4
0 6 -18 3 -40 -5 -36 -3 -40 16 -40 16 0 21 6 21 24 0 45 34 42 43 -4 2 -14 5
1 6 33 0 32 -3 57 -9 57 -5 0 -10 -7 -10 -15 0 -20 -16 -19 -24 1 -9 25 -7 66
3 59 6 -3 20 8 32 24 12 16 27 28 33 27 6 -2 8 -1 4 1 -12 7 -10 53 2 53 6 0
10 -4 10 -10 0 -23 18 -8 22 19 3 21 1 28 -9 24 -8 -3 -13 3 -13 16 0 12 3 22
8 22 55 8 73 7 88 -8 16 -16 16 -16 10 5 -4 11 -2 31 4 43 10 17 9 20 0 14
-10 -6 -11 -1 -7 18 6 21 4 24 -12 20 -11 -3 -21 2 -24 11 -4 9 -1 16 6 17 7
1 1 5 -13 9 -28 9 -37 9 -65 3z m100 -93 c7 -12 -29 -12 -65 0 -21 7 -19 8 17
9 23 1 45 -3 48 -9z"/>
<path d="M3217 2808 c-3 -8 3 -25 13 -37 l17 -24 -1 27 c-2 32 -21 54 -29 34z"/>
<path d="M3230 2685 c0 -8 2 -15 4 -15 2 0 6 7 10 15 3 8 1 15 -4 15 -6 0 -10
-7 -10 -15z"/>
</g>
</svg>
